<?xml version="1.0" encoding="utf-8"?>
<!-- Generator: Adobe Illustrator 16.0.0, SVG Export Plug-In . SVG Version: 6.00 Build 0)  -->
<!DOCTYPE svg PUBLIC "-//W3C//DTD SVG 1.1//EN" "http://www.w3.org/Graphics/SVG/1.1/DTD/svg11.dtd">
<svg version="1.1" id="Layer_1" xmlns="http://www.w3.org/2000/svg" xmlns:xlink="http://www.w3.org/1999/xlink" x="0px" y="0px"
	 width="12px" height="12px" viewBox="0 0 12 12" enable-background="new 0 0 12 12" xml:space="preserve">
<g>
	<g>
		<path fill="#989898" d="M6.598,2.118l3.3,3.299l-6.599,6.597H0V8.716L6.598,2.118z M2.879,10.999l0.721-0.72L1.736,8.415
			L1.015,9.137v0.849H2.03v1.014H2.879z M7.026,3.641c0-0.117-0.059-0.175-0.173-0.175c-0.054,0-0.099,0.019-0.136,0.056L2.418,7.82
			C2.381,7.856,2.364,7.901,2.364,7.954c0,0.116,0.058,0.175,0.174,0.175c0.052,0,0.098-0.02,0.135-0.057L6.97,3.774
			C7.007,3.738,7.026,3.693,7.026,3.641z M12.016,2.879c0,0.281-0.099,0.519-0.293,0.714L10.405,4.91l-3.3-3.3l1.316-1.309
			C8.611,0.101,8.852,0,9.135,0c0.281,0,0.521,0.101,0.722,0.301l1.863,1.855C11.917,2.364,12.016,2.604,12.016,2.879z"/>
	</g>
</g>
</svg>
